# xmcd
#
# Track frame offsets: 
#        150
#        8413
#        26034
#        43398
#        62624
#        83191
#        99224
#        102395
#        119203
#        135405
#        146178
#        162758
#        165826
#        178300
#
# Disc length: 2553 seconds
#
# Revision: 3
# Processed by: cddbd v1.5.2PL0 Copyright (c) Steve Scherf et al.
# Submitted via: ExactAudioCopyFreeDBPlugin 1.0
#
DISCID=b809f70e
DTITLE=The Roots - How I Got Over
DYEAR=2010
DGENRE=Hip-Hop
TTITLE0=A Peace Of Light Feat. Amber Coffman, Angel Deradoorian and Hale
TTITLE0=y Dekle
TTITLE1=Walk Alone Feat. Truck North, P.O.R.N. and Dice Raw
TTITLE2=Dear God 2.0 Feat. Monsters Of Folk
TTITLE3=Radio Daze Feat. Blu, P.O.R.N. and Dice Raw
TTITLE4=Now Or Never Feat. Phonte and Dice Raw
TTITLE5=How I Got Over Feat. Dice Raw
TTITLE6=DillaTUDE: The Flight Of Titus
TTITLE7=The Day Feat. Blu, Phonte and Patty Crash
TTITLE8=Right On Feat. Joanna Newsom and STS
TTITLE9=Doin' It Again
TTITLE10=The Fire Feat. John Legend
TTITLE11=Tunnel Vision
TTITLE12=Web 20-20 Feat. Peedi Peedi and Truck North
TTITLE13=Hustla Feat. STS (Bonus Track)
EXTD=YEAR: 2010
EXTT0=
EXTT1=
EXTT2=
EXTT3=
EXTT4=
EXTT5=
EXTT6=
EXTT7=
EXTT8=
EXTT9=
EXTT10=
EXTT11=
EXTT12=
EXTT13=
PLAYORDER=
